<svg width="512" height="512" viewBox="0 0 512 512" fill="none" xmlns="http://www.w3.org/2000/svg">
<path d="M272 256L288 384H128V256H272Z" fill="#7A5BFF"/>
<path d="M416 128V256H384V288H352V320H320V352H288V384H272V416H160V448H128V352H160V384H224V352H256V288H224V256H160V288H128V352H96V256H64V128V96V64H96H128H240V96H352V128H416Z" fill="#E7E9E7"/>
<path d="M224 288H160V352H224V288Z" fill="#D808FF"/>
<path d="M464 128H416V320H464V128Z" fill="#4D9CFF"/>
<path d="M416 256H384V288H416V256Z" fill="#4D9CFF"/>
<path d="M384 288H352V320H384V288Z" fill="#4D9CFF"/>
<path d="M352 320H320V352H352V320Z" fill="#4D9CFF"/>
<path d="M320 352H288V384H320V352Z" fill="#4D9CFF"/>
<path d="M288 384H256V416H288V384Z" fill="#4D9CFF"/>
<path d="M320 416H128V464H320V416Z" fill="#4D9CFF"/>
<path d="M192 192H128V224H192V192Z" fill="#7A5BFF"/>
<path d="M128 128H96V192H128V128Z" fill="#7A5BFF"/>
<path d="M192 96H128V128H192V96Z" fill="#7A5BFF"/>
<path d="M224 128H192V192H224V128Z" fill="#7A5BFF"/>
<path d="M192 128H128V192H192V128Z" fill="#D808FF"/>
<path d="M384 160V224H352V256H288V224H256V160H288V128H352V160H384Z" fill="#7A5BFF"/>
<path d="M352 160H288V224H352V160Z" fill="#D808FF"/>
<path d="M352 352H288V416H352V352Z" fill="#4D9CFF"/>
<path d="M384 320H320V384H384V320Z" fill="#4D9CFF"/>
<path d="M416 288H352V352H416V288Z" fill="#4D9CFF"/>
</svg>
