<svg width="32" height="32" viewBox="0 0 32 32" fill="none" xmlns="http://www.w3.org/2000/svg">
<path d="M7 24V11C7 10.7348 7.10536 10.4804 7.29289 10.2929C7.48043 10.1054 7.73478 10 8 10C8.26522 10 8.51957 10.1054 8.70711 10.2929C8.89464 10.4804 9 10.7348 9 11V21.5863L23.2925 7.2925C23.4801 7.10486 23.7346 6.99944 24 6.99944C24.2654 6.99944 24.5199 7.10486 24.7075 7.2925C24.8951 7.48014 25.0006 7.73464 25.0006 8C25.0006 8.26536 24.8951 8.51986 24.7075 8.7075L10.4137 23H21C21.2652 23 21.5196 23.1054 21.7071 23.2929C21.8946 23.4804 22 23.7348 22 24C22 24.2652 21.8946 24.5196 21.7071 24.7071C21.5196 24.8946 21.2652 25 21 25H8C7.73478 25 7.48043 24.8946 7.29289 24.7071C7.10536 24.5196 7 24.2652 7 24Z" fill="black"/>
</svg>
