<svg width="24" height="24" viewBox="0 0 24 24" fill="none" xmlns="http://www.w3.org/2000/svg">
<path d="M7.7501 8.5C7.7501 8.91421 8.08589 9.25 8.5001 9.25C8.91431 9.25 9.2501 8.91421 9.2501 8.5H7.7501ZM8.5001 8.267L9.25011 8.267L9.25009 8.26283L8.5001 8.267ZM9.43897 5.96432L9.97223 6.49171L9.97223 6.49171L9.43897 5.96432ZM11.7311 5L11.7311 4.24999L11.727 4.25001L11.7311 5ZM15.7691 5L15.7732 4.25H15.7691V5ZM18.0612 5.96432L17.528 6.49171L17.528 6.49171L18.0612 5.96432ZM19.0001 8.267L18.2501 8.26283V8.267H19.0001ZM19.0001 12.233L18.2501 12.233L18.2501 12.2372L19.0001 12.233ZM18.0612 14.5357L17.528 14.0083L18.0612 14.5357ZM15.7691 15.5L15.7691 16.25L15.7732 16.25L15.7691 15.5ZM15.5001 14.75C15.0859 14.75 14.7501 15.0858 14.7501 15.5C14.7501 15.9142 15.0859 16.25 15.5001 16.25V14.75ZM8.5001 9.25C8.91431 9.25 9.2501 8.91421 9.2501 8.5C9.2501 8.08579 8.91431 7.75 8.5001 7.75V9.25ZM8.2311 8.5L8.2311 7.74999L8.22696 7.75001L8.2311 8.5ZM5.93897 9.46432L6.47223 9.99171L6.47223 9.99171L5.93897 9.46432ZM5.0001 11.767L5.75011 11.767L5.75009 11.7628L5.0001 11.767ZM5.0001 15.734L5.7501 15.7379V15.734H5.0001ZM8.2311 19L8.22695 19.75H8.2311V19ZM12.2691 19L12.2691 19.75L12.2732 19.75L12.2691 19ZM14.5612 18.0357L14.028 17.5083L14.5612 18.0357ZM15.5001 15.733L14.7501 15.733L14.7501 15.7372L15.5001 15.733ZM16.2501 15.5C16.2501 15.0858 15.9143 14.75 15.5001 14.75C15.0859 14.75 14.7501 15.0858 14.7501 15.5H16.2501ZM8.5001 7.75C8.08589 7.75 7.7501 8.08579 7.7501 8.5C7.7501 8.91421 8.08589 9.25 8.5001 9.25V7.75ZM12.2691 8.5L12.2732 7.75H12.2691V8.5ZM14.5612 9.46432L15.0945 8.93694L15.0945 8.93694L14.5612 9.46432ZM15.5001 11.767L14.7501 11.7628V11.767H15.5001ZM14.7501 15.5C14.7501 15.9142 15.0859 16.25 15.5001 16.25C15.9143 16.25 16.2501 15.9142 16.2501 15.5H14.7501ZM8.5001 8.5H9.2501V8.267H8.5001H7.7501V8.5H8.5001ZM8.5001 8.267L9.25009 8.26283C9.24641 7.60005 9.50617 6.96296 9.97223 6.49171L9.43897 5.96432L8.90571 5.43694C8.1599 6.19106 7.74422 7.21056 7.75011 8.27117L8.5001 8.267ZM9.43897 5.96432L9.97223 6.49171C10.4383 6.02046 11.0725 5.75365 11.7352 5.74999L11.7311 5L11.727 4.25001C10.6663 4.25587 9.65151 4.68282 8.90571 5.43694L9.43897 5.96432ZM11.7311 5V5.75H15.7691V5V4.25H11.7311V5ZM15.7691 5L15.765 5.74999C16.4277 5.75365 17.0619 6.02046 17.528 6.49171L18.0612 5.96432L18.5945 5.43694C17.8487 4.68282 16.8338 4.25587 15.7732 4.25001L15.7691 5ZM18.0612 5.96432L17.528 6.49171C17.994 6.96296 18.2538 7.60005 18.2501 8.26283L19.0001 8.267L19.7501 8.27117C19.756 7.21056 19.3403 6.19106 18.5945 5.43694L18.0612 5.96432ZM19.0001 8.267H18.2501V12.233H19.0001H19.7501V8.267H19.0001ZM19.0001 12.233L18.2501 12.2372C18.2538 12.8999 17.994 13.537 17.528 14.0083L18.0612 14.5357L18.5945 15.0631C19.3403 14.3089 19.756 13.2894 19.7501 12.2288L19.0001 12.233ZM18.0612 14.5357L17.528 14.0083C17.0619 14.4795 16.4277 14.7463 15.765 14.75L15.7691 15.5L15.7732 16.25C16.8338 16.2441 17.8487 15.8172 18.5945 15.0631L18.0612 14.5357ZM15.7691 15.5V14.75H15.5001V15.5V16.25H15.7691V15.5ZM8.5001 8.5V7.75H8.2311V8.5V9.25H8.5001V8.5ZM8.2311 8.5L8.22696 7.75001C7.16635 7.75587 6.15151 8.18282 5.40571 8.93694L5.93897 9.46432L6.47223 9.99171C6.93829 9.52046 7.57246 9.25365 8.23524 9.24999L8.2311 8.5ZM5.93897 9.46432L5.40571 8.93694C4.6599 9.69106 4.24422 10.7106 4.25011 11.7712L5.0001 11.767L5.75009 11.7628C5.74641 11.1001 6.00617 10.463 6.47223 9.99171L5.93897 9.46432ZM5.0001 11.767H4.2501V15.734H5.0001H5.7501V11.767H5.0001ZM5.0001 15.734L4.25011 15.7301C4.23852 17.9382 6.01884 19.7378 8.22695 19.75L8.2311 19L8.23524 18.25C6.85538 18.2424 5.74285 17.1178 5.75009 15.7379L5.0001 15.734ZM8.2311 19V19.75H12.2691V19V18.25H8.2311V19ZM12.2691 19L12.2732 19.75C13.3338 19.7441 14.3487 19.3172 15.0945 18.5631L14.5612 18.0357L14.028 17.5083C13.5619 17.9795 12.9277 18.2463 12.265 18.25L12.2691 19ZM14.5612 18.0357L15.0945 18.5631C15.8403 17.8089 16.256 16.7894 16.2501 15.7288L15.5001 15.733L14.7501 15.7372C14.7538 16.3999 14.494 17.037 14.028 17.5083L14.5612 18.0357ZM15.5001 15.733H16.2501V15.5H15.5001H14.7501V15.733H15.5001ZM8.5001 8.5V9.25H12.2691V8.5V7.75H8.5001V8.5ZM12.2691 8.5L12.265 9.24999C12.9277 9.25365 13.5619 9.52046 14.028 9.99171L14.5612 9.46432L15.0945 8.93694C14.3487 8.18282 13.3338 7.75587 12.2732 7.75001L12.2691 8.5ZM14.5612 9.46432L14.028 9.99171C14.494 10.463 14.7538 11.1001 14.7501 11.7628L15.5001 11.767L16.2501 11.7712C16.256 10.7106 15.8403 9.69106 15.0945 8.93694L14.5612 9.46432ZM15.5001 11.767H14.7501V15.5H15.5001H16.2501V11.767H15.5001Z" fill="black"/>
</svg>
